<svg xmlns="http://www.w3.org/2000/svg" width="21" height="32" viewBox="0 0 21 32"><path d="M16.571 6.857q1.661 0 2.83 1.17t1.17 2.83v12.571q0 1.643-1.17 2.821t-2.83 1.179h-12.571q-1.661 0-2.83-1.179t-1.17-2.821v-12.571q0-1.661 1.17-2.83t2.83-1.17h12.571zm1.715 16.572v-12.571q0-.714-.5-1.214t-1.214-.5h-12.571q-.714 0-1.214.5t-.5 1.214v12.571q0 .714.5 1.214t1.214.5h12.571q.714 0 1.214-.5t.5-1.214zm-2.857-7.429q.25 0 .411.161t.161.411v1.143q0 .25-.161.411t-.411.161h-10.286q-.25 0-.411-.161t-.161-.411v-1.143q0-.25.161-.411t.411-.161h10.286z"/></svg>