<svg xmlns="http://www.w3.org/2000/svg" width="21" height="32" viewBox="0 0 21 32"><path d="M16 16.571v1.143q0 .25-.161.411t-.411.161h-4v4q0 .25-.161.411t-.411.161h-1.143q-.25 0-.411-.161t-.161-.411v-4h-4q-.25 0-.411-.161t-.161-.411v-1.143q0-.25.161-.411t.411-.161h4v-4q0-.25.161-.411t.411-.161h1.143q.25 0 .411.161t.161.411v4h4q.25 0 .411.161t.161.411zm2.286 6.858v-12.571q0-.714-.5-1.214t-1.214-.5h-12.571q-.714 0-1.214.5t-.5 1.214v12.571q0 .714.5 1.214t1.214.5h12.571q.714 0 1.214-.5t.5-1.214zm2.285-12.572v12.571q0 1.643-1.17 2.821t-2.83 1.179h-12.571q-1.661 0-2.83-1.179t-1.17-2.821v-12.571q0-1.661 1.17-2.83t2.83-1.17h12.571q1.661 0 2.83 1.17t1.17 2.83z"/></svg>