<svg width="28" height="32" viewBox="0 0 28 32" xmlns="http://www.w3.org/2000/svg" xmlns:sketch="http://www.bohemiancoding.com/sketch/ns"><title>Slice 1</title><path d="M25.879 5.879l-3.757-3.757c-1.167-1.167-3.471-2.121-5.121-2.121h-14c-1.65 0-3 1.35-3 3v26c0 1.65 1.35 3 3 3h22c1.65 0 3-1.35 3-3v-18c0-1.65-.955-3.955-2.121-5.121l-.001-.001zm-7.879-1.643l.211.082c.564.234.956.505 1.082.631l3.757 3.757c.126.126.397.517.631 1.082l.082.211h-5.764v-5.764l.001.001zm6 23.764h-20v-24h12v8h8v16zm-18-12h16v2h-16v-2zm0 4h16v2h-16v-2zm0 4h16v2h-16v-2z" fill="#036" sketch:type="MSShapeGroup"/></svg>