<svg width="60" height="60" viewBox="0 0 60 60" xmlns="http://www.w3.org/2000/svg" xmlns:sketch="http://www.bohemiancoding.com/sketch/ns"><title>Slice 1</title><g sketch:type="MSPage" fill="none" stroke="#eee" stroke-width="2"><path d="M1 1h58v58h-58v-58zm58 44h-58 58zm-35.305-34.43c-3.139 0-5.723 2.3-6.203 5.3-.424-.16-.88-.26-1.361-.26-2.09 0-3.783 1.69-3.783 3.78s1.693 3.79 3.783 3.61h7.564c3.481.18 6.305-2.65 6.305-6.13s-2.824-6.3-6.305-6.3z" sketch:type="MSShapeGroup"/><path d="M8 45.3s5.609-13.74 11.913-13.74 11.348 7.57 11.348 7.57l7.602-13.03c.758-1.3 2.147-2.1 3.657-2.1 1.6 0 3.06.9 3.78 2.34l9.7 18.96" stroke-linejoin="round" sketch:type="MSShapeGroup"/></g></svg>