<svg width="28" height="28" viewBox="0 0 28 28" xmlns="http://www.w3.org/2000/svg" xmlns:sketch="http://www.bohemiancoding.com/sketch/ns"><title>Slice 1</title><path d="M20.518 18.036c0-.309-.113-.577-.339-.804l-3.232-3.232 3.232-3.232c.226-.226.339-.494.339-.804 0-.321-.113-.595-.339-.821l-1.607-1.607c-.226-.226-.5-.339-.821-.339-.309 0-.577.113-.804.339l-3.232 3.232-3.232-3.232c-.226-.226-.494-.339-.804-.339-.321 0-.595.113-.821.339l-1.607 1.607c-.226.226-.339.5-.339.821 0 .309.113.577.339.804l3.232 3.232-3.232 3.232c-.226.226-.339.494-.339.804 0 .321.113.595.339.821l1.607 1.607c.226.226.5.339.821.339.309 0 .577-.113.804-.339l3.232-3.232 3.232 3.232c.226.226.494.339.804.339.321 0 .595-.113.821-.339l1.607-1.607c.226-.226.339-.5.339-.821zm6.911-4.036c0 2.488-.613 4.783-1.839 6.884s-2.89 3.765-4.991 4.991c-2.101 1.226-4.396 1.839-6.884 1.839-2.488 0-4.783-.613-6.884-1.839s-3.765-2.89-4.991-4.991c-1.226-2.101-1.839-4.396-1.839-6.884 0-2.488.613-4.783 1.839-6.884s2.89-3.765 4.991-4.991c2.101-1.226 4.396-1.839 6.884-1.839 2.488 0 4.783.613 6.884 1.839s3.765 2.89 4.991 4.991c1.226 2.101 1.839 4.396 1.839 6.884z" fill="#c30" sketch:type="MSShapeGroup"/></svg>